:FULLY-SPECIFIED
:FORCE-ALL-JOINTS-BE-3DOF
:DEGREES
816
root -3.6519 14.8288 -38.7986 18.3028 -66.4969 -15.0863
lfemur -37.4379 18.1722 11.3151
ltibia 47.5986 -0 0
lfoot 14.4334 14.7473 0.737438
ltoes -7.18984 0 0
rfemur -18.9805 -17.036 12.7806
rtibia 63.3836 -0 0
rfoot -25.5766 -28.1653 0.00462839
rtoes -19.3773 0 0
lowerback 15.9074 2.52355 3.8228
upperback -1.14126 4.26062 2.4482
thorax -10.113 1.8717 -0.536855
lowerneck -5.08817 8.70891 3.28767
upperneck 4.25395 11.6634 -4.3746
head 2.80803 5.72488 -1.47351
lclavicle -3.56781e-14 -3.06253e-15 -3.04267e-31
lhumerus 2.15166 -18.344 64.0354
lradius 96.661 -0 0
lwrist -1.428 0 0
lhand -26.3879 46.2853 0.112396
lfingers 7.12502 -0 0
lthumb 0.17119 76.2469 0.109121
rclavicle -3.56781e-14 -3.06253e-15 -3.04267e-31
rhumerus -49.9929 45.7195 -93.5485
rradius 116.702 -0 0
rwrist -22.8775 0 0
rhand 22.1021 -12.5971 3.47099
rfingers 7.12502 -0 0
rthumb 46.2906 -32.5481 4.17734
817
root -3.60127 14.8339 -38.8016 17.9078 -66.1699 -14.6675
lfemur -37.3006 18.1416 11.3626
ltibia 47.4615 -0 0
lfoot 14.546 14.9053 0.721604
ltoes -7.22718 0 0
rfemur -19.1576 -17.1041 12.7801
rtibia 63.4805 -0 0
rfoot -25.5642 -28.1563 0.00452945
rtoes -19.3898 0 0
lowerback 15.9161 2.53213 3.79008
upperback -1.1462 4.26601 2.42656
thorax -10.1238 1.87557 -0.543749
lowerneck -5.09259 8.7361 3.31385
upperneck 4.25575 11.7004 -4.42045
head 2.81489 5.74246 -1.49017
lclavicle -3.5718e-14 -3.24765e-15 -2.97763e-31
lhumerus 1.80001 -18.7782 63.8484
lradius 97.2867 -0 0
lwrist -0.80772 0 0
lhand -26.3463 46.3508 0.109992
lfingers 7.12502 -0 0
lthumb 0.211357 76.3128 0.106787
rclavicle -3.5718e-14 -3.24765e-15 -2.97763e-31
rhumerus -49.7502 45.9088 -93.4618
rradius 116.687 -0 0
rwrist -22.4968 0 0
rhand 22.4061 -12.3271 3.39527
rfingers 7.12502 -0 0
rthumb 46.5773 -32.2054 4.08581
818
root -3.55064 14.839 -38.8045 17.5237 -65.8418 -14.2595
lfemur -37.1633 18.1108 11.41
ltibia 47.3244 -0 0
lfoot 14.6585 15.0632 0.70546
ltoes -7.26452 0 0
rfemur -19.3347 -17.1723 12.7798
rtibia 63.5774 -0 0
rfoot -25.5517 -28.1473 0.00442855
rtoes -19.4023 0 0
lowerback 15.9247 2.54072 3.75736
upperback -1.15113 4.27141 2.40492
thorax -10.1345 1.87944 -0.550644
lowerneck -5.09701 8.76329 3.34004
upperneck 4.25751 11.7375 -4.4663
head 2.82175 5.76004 -1.50683
lclavicle -3.57579e-14 -3.43277e-15 -2.9113e-31
lhumerus 1.44894 -19.2135 63.6636
lradius 97.9125 -0 0
lwrist -0.187437 0 0
lhand -26.3047 46.4162 0.10754
lfingers 7.12502 -0 0
lthumb 0.251521 76.3786 0.104407
rclavicle -3.57579e-14 -3.43277e-15 -2.9113e-31
rhumerus -49.5063 46.0979 -93.3737
rradius 116.672 -0 0
rwrist -22.1161 0 0
rhand 22.7097 -12.0575 3.31813
rfingers 7.12502 -0 0
rthumb 46.8633 -31.8632 3.99257
819
root -3.50001 14.8441 -38.8075 17.1501 -65.5126 -13.8621
lfemur -37.0261 18.0799 11.4574
ltibia 47.1873 -0 0
lfoot 14.7711 15.2211 0.689006
ltoes -7.30187 0 0
rfemur -19.5119 -17.2405 12.7797
rtibia 63.6742 -0 0
rfoot -25.5393 -28.1382 0.00432569
rtoes -19.4148 0 0
lowerback 15.9334 2.54932 3.72465
upperback -1.15607 4.2768 2.38328
thorax -10.1453 1.88331 -0.557539
lowerneck -5.10141 8.79048 3.36622
upperneck 4.25925 11.7746 -4.51215
head 2.82861 5.77762 -1.52349
lclavicle -3.57977e-14 -3.61788e-15 -2.84369e-31
lhumerus 1.09843 -19.6499 63.4812
lradius 98.5382 -0 0
lwrist 0.432846 0 0
lhand -26.2631 46.4817 0.105041
lfingers 7.12502 -0 0
lthumb 0.291683 76.4444 0.10198
rclavicle -3.57977e-14 -3.61788e-15 -2.84369e-31
rhumerus -49.2611 46.2866 -93.284
rradius 116.656 -0 0
rwrist -21.7354 0 0
rhand 23.013 -11.7883 3.23956
rfingers 7.12502 -0 0
rthumb 47.1487 -31.5214 3.89763
820
root -3.44938 14.8492 -38.8105 16.7866 -65.1823 -13.4746
lfemur -36.889 18.0489 11.5046
ltibia 47.0501 -0 0
lfoot 14.8835 15.379 0.672242
ltoes -7.33921 0 0
rfemur -19.6892 -17.3087 12.7799
rtibia 63.7711 -0 0
rfoot -25.5268 -28.1292 0.00422087
rtoes -19.4273 0 0
lowerback 15.9421 2.55792 3.69193
upperback -1.16101 4.28218 2.36163
thorax -10.156 1.88717 -0.564435
lowerneck -5.10581 8.81768 3.39241
upperneck 4.26096 11.8116 -4.55801
head 2.83546 5.79521 -1.54015
lclavicle -3.58376e-14 -3.803e-15 -2.77478e-31
lhumerus 0.748423 -20.0873 63.3011
lradius 99.164 -0 0
lwrist 1.05313 0 0
lhand -26.2215 46.5472 0.102494
lfingers 7.12502 -0 0
lthumb 0.331842 76.5103 0.0995078
rclavicle -3.58376e-14 -3.803e-15 -2.77478e-31
rhumerus -49.0146 46.4751 -93.1929
rradius 116.641 -0 0
rwrist -21.3548 0 0
rhand 23.3158 -11.5196 3.15957
rfingers 7.12502 -0 0
rthumb 47.4336 -31.1803 3.80099
821
root -3.39875 14.8543 -38.8134 16.4328 -64.8511 -13.0969
lfemur -36.7518 18.0178 11.5518
ltibia 46.913 -0 0
lfoot 14.9959 15.5368 0.655168
ltoes -7.37655 0 0
rfemur -19.8666 -17.3769 12.7803
rtibia 63.8679 -0 0
rfoot -25.5144 -28.1202 0.00411409
rtoes -19.4398 0 0
lowerback 15.9507 2.56653 3.65922
upperback -1.16596 4.28757 2.33999
thorax -10.1667 1.89104 -0.571332
lowerneck -5.11018 8.84488 3.41859
upperneck 4.26263 11.8487 -4.60388
head 2.8423 5.8128 -1.5568
lclavicle -3.58774e-14 -3.98812e-15 -2.70459e-31
lhumerus 0.398898 -20.5257 63.1234
lradius 99.7897 -0 0
lwrist 1.67341 0 0
lhand -26.18 46.6127 0.0998994
lfingers 7.12502 -0 0
lthumb 0.371998 76.5761 0.0969891
rclavicle -3.58774e-14 -3.98812e-15 -2.70459e-31
rhumerus -48.7668 46.6634 -93.1003
rradius 116.626 -0 0
rwrist -20.9741 0 0
rhand 23.6182 -11.2513 3.07816
rfingers 7.12502 -0 0
rthumb 47.7178 -30.8396 3.70267
822
root -3.34812 14.8594 -38.8164 16.0884 -64.5189 -12.7286
lfemur -36.6148 17.9866 11.5988
ltibia 46.7759 -0 0
lfoot 15.1083 15.6946 0.637785
ltoes -7.41389 0 0
rfemur -20.044 -17.4451 12.7809
rtibia 63.9648 -0 0
rfoot -25.502 -28.1112 0.00400535
rtoes -19.4522 0 0
lowerback 15.9594 2.57514 3.6265
upperback -1.1709 4.29296 2.31835
thorax -10.1775 1.8949 -0.578229
lowerneck -5.11455 8.87208 3.44477
upperneck 4.26428 11.8858 -4.64975
head 2.84914 5.83039 -1.57346
lclavicle -3.59173e-14 -4.17324e-15 -2.63311e-31
lhumerus 0.049816 -20.9651 62.948
lradius 100.415 -0 0
lwrist 2.29369 0 0
lhand -26.1384 46.6781 0.0972575
lfingers 7.12502 -0 0
lthumb 0.412151 76.6419 0.0944242
rclavicle -3.59173e-14 -4.17324e-15 -2.63311e-31
rhumerus -48.5177 46.8513 -93.0062
rradius 116.611 -0 0
rwrist -20.5934 0 0
rhand 23.9203 -10.9835 2.99535
rfingers 7.12502 -0 0
rthumb 48.0014 -30.4995 3.60266
823
root -3.29749 14.8645 -38.8194 15.7531 -64.1857 -12.3693
lfemur -36.4778 17.9553 11.6458
ltibia 46.6388 -0 0
lfoot 15.2206 15.8524 0.620092
ltoes -7.45123 0 0
rfemur -20.2214 -17.5132 12.7817
rtibia 64.0616 -0 0
rfoot -25.4895 -28.1021 0.00389465
rtoes -19.4647 0 0
lowerback 15.9681 2.58375 3.59379
upperback -1.17585 4.29834 2.2967
thorax -10.1882 1.89876 -0.585127
lowerneck -5.11891 8.89928 3.47096
upperneck 4.26589 11.9228 -4.69562
head 2.85598 5.84798 -1.59011
lclavicle -3.59572e-14 -4.35836e-15 -2.56035e-31
lhumerus -0.29886 -21.4056 62.775
lradius 101.041 -0 0
lwrist 2.91398 0 0
lhand -26.0968 46.7436 0.0945682
lfingers 7.12502 -0 0
lthumb 0.452301 76.7077 0.0918132
rclavicle -3.59572e-14 -4.35836e-15 -2.56035e-31
rhumerus -48.2673 47.039 -92.9106
rradius 116.595 -0 0
rwrist -20.2127 0 0
rhand 24.2219 -10.7161 2.91112
rfingers 7.12502 -0 0
rthumb 48.2844 -30.1599 3.50098
824
root -3.24686 14.8696 -38.8223 15.4265 -63.8517 -12.0186
lfemur -36.3408 17.9239 11.6927
ltibia 46.5017 -0 0
lfoot 15.3329 16.0101 0.60209
ltoes -7.48857 0 0
rfemur -20.399 -17.5814 12.7827
rtibia 64.1585 -0 0
rfoot -25.4771 -28.0931 0.003782
rtoes -19.4772 0 0
lowerback 15.9767 2.59237 3.56108
upperback -1.1808 4.30372 2.27505
thorax -10.199 1.90262 -0.592026
lowerneck -5.12325 8.92648 3.49714
upperneck 4.26748 11.9599 -4.7415
head 2.86281 5.86557 -1.60676
lclavicle -3.5997e-14 -4.54347e-15 -2.48629e-31
lhumerus -0.647168 -21.847 62.6044
lradius 101.667 -0 0
lwrist 3.53426 0 0
lhand -26.0552 46.8091 0.0918313
lfingers 7.12502 -0 0
lthumb 0.492448 76.7735 0.0891561
rclavicle -3.5997e-14 -4.54347e-15 -2.48629e-31
rhumerus -48.0156 47.2264 -92.8134
rradius 116.58 -0 0
rwrist -19.832 0 0
rhand 24.5231 -10.4492 2.82549
rfingers 7.12502 -0 0
rthumb 48.5667 -29.8208 3.39762
825
root -3.19623 14.8747 -38.8253 15.1083 -63.5168 -11.6764
lfemur -36.2039 17.8924 11.7395
ltibia 46.3646 -0 0
lfoot 15.4451 16.1678 0.583779
ltoes -7.52591 0 0
rfemur -20.5766 -17.6496 12.784
rtibia 64.2553 -0 0
rfoot -25.4647 -28.0841 0.00366739
rtoes -19.4897 0 0
lowerback 15.9854 2.601 3.52837
upperback -1.18575 4.3091 2.25341
thorax -10.2097 1.90648 -0.598926
lowerneck -5.12758 8.95369 3.52332
upperneck 4.26903 11.997 -4.78739
head 2.86963 5.88317 -1.62341
lclavicle -3.60369e-14 -4.72859e-15 -2.41095e-31
lhumerus -0.995144 -22.2893 62.4361
lradius 102.293 -0 0
lwrist 4.15454 0 0
lhand -26.0137 46.8746 0.089047
lfingers 7.12502 -0 0
lthumb 0.532592 76.8394 0.0864529
rclavicle -3.60369e-14 -4.72859e-15 -2.41095e-31
rhumerus -47.7624 47.4135 -92.7147
rradius 116.565 -0 0
rwrist -19.4514 0 0
rhand 24.8238 -10.1828 2.73846
rfingers 7.12502 -0 0
rthumb 48.8484 -29.4823 3.2926
826
root -3.1456 14.8798 -38.8283 14.7983 -63.1811 -11.3422
lfemur -36.0671 17.8607 11.7862
ltibia 46.2274 -0 0
lfoot 15.5573 16.3255 0.565159
ltoes -7.56325 0 0
rfemur -20.7543 -17.7178 12.7855
rtibia 64.3522 -0 0
rfoot -25.4522 -28.075 0.00355081
rtoes -19.5022 0 0
lowerback 15.994 2.60963 3.49566
upperback -1.1907 4.31448 2.23176
thorax -10.2205 1.91034 -0.605826
lowerneck -5.1319 8.9809 3.54951
upperneck 4.27056 12.034 -4.83328
head 2.87645 5.90077 -1.64006
lclavicle -3.60768e-14 -4.91371e-15 -2.33432e-31
lhumerus -1.34283 -22.7326 62.2702
lradius 102.918 -0 0
lwrist 4.77483 0 0
lhand -25.9721 46.94 0.0862151
lfingers 7.12502 -0 0
lthumb 0.572733 76.9052 0.0837036
rclavicle -3.60768e-14 -4.91371e-15 -2.33432e-31
rhumerus -47.5079 47.6003 -92.6143
rradius 116.549 -0 0
rwrist -19.0707 0 0
rhand 25.1242 -9.91686 2.65004
rfingers 7.12502 -0 0
rthumb 49.1295 -29.1444 3.18592
